<svg width="28" height="28" viewBox="0 0 28 28" fill="none" xmlns="http://www.w3.org/2000/svg">
<path d="M14.3643 4.34766C15.1484 4.34774 15.9092 4.61223 16.5264 5.09766L22.0605 9.4502L22.2168 9.58008C22.9777 10.2524 23.416 11.2256 23.416 12.249C23.416 12.2798 23.414 12.3113 23.4102 12.3418L22.6738 18.2441C22.6096 18.7591 22.5695 19.1118 22.4424 19.4873C22.317 19.8574 22.1766 20.0925 21.9766 20.4346C21.6288 21.0293 21.3858 21.2779 21.0928 21.5742C20.6462 22.0258 20.0119 22.2848 19.4912 22.4326C18.9567 22.5843 18.4204 22.6523 18.0684 22.6523H10.5977C10.2457 22.6523 9.70938 22.5843 9.1748 22.4326C8.65413 22.2848 8.0199 22.0258 7.57324 21.5742C7.28014 21.2778 7.03724 21.0293 6.68945 20.4346C6.48942 20.0924 6.34904 19.8575 6.22363 19.4873C6.09646 19.1118 6.05638 18.7591 5.99219 18.2441L5.25586 12.3418C5.25206 12.3113 5.25003 12.2798 5.25 12.249C5.25003 11.2256 5.68826 10.2524 6.44922 9.58008L6.60547 9.4502L12.1396 5.09766C12.7568 4.61227 13.5176 4.34769 14.3018 4.34766C14.3122 4.34766 14.3226 4.34854 14.333 4.34863C14.3433 4.34854 14.3539 4.34766 14.3643 4.34766ZM14.334 15.2373C13.2343 15.2373 12.3418 16.1288 12.3418 17.2285V20.0166H16.3252V17.2285C16.3252 16.129 15.4335 15.2376 14.334 15.2373Z" fill="white"/>
</svg>
