<svg width="28" height="28" viewBox="0 0 28 28" fill="none" xmlns="http://www.w3.org/2000/svg">
<g opacity="0.4">
<path d="M4.5 10.262V18.9468C4.5 20.0619 4.5 20.6194 4.80252 21.0391C5.10504 21.4589 5.63395 21.6352 6.69176 21.9878L7.93627 22.4026C9.39695 22.8895 10.1273 23.133 10.8626 23.0345C10.8787 23.0323 10.8948 23.0301 10.9108 23.0275V8.0692C10.7902 8.08722 10.6686 8.09835 10.5465 8.10252C9.97041 8.12219 9.40024 7.93214 8.25993 7.55203C6.7663 7.05416 6.01949 6.80522 5.45124 7.05802C5.24949 7.14777 5.06846 7.27825 4.91952 7.44127C4.5 7.90041 4.5 8.68762 4.5 10.262Z" fill="white"/>
<path d="M23.7323 17.2941V8.60918C23.7323 7.49416 23.7323 6.93664 23.4298 6.51691C23.1272 6.09719 22.5983 5.92088 21.5406 5.56828L20.296 5.15345C18.8353 4.66655 18.105 4.4231 17.3697 4.52157C17.3536 4.52372 17.3376 4.52604 17.3215 4.52851V19.4869C17.4422 19.4688 17.5638 19.4577 17.6858 19.4535C18.2619 19.4339 18.832 19.624 19.9724 20.004C21.466 20.5019 22.2128 20.7509 22.7811 20.4981C22.9828 20.4083 23.1639 20.2779 23.3128 20.1148C23.7323 19.6557 23.7323 18.8684 23.7323 17.2941Z" fill="white"/>
</g>
<path d="M11.1745 8.01839C11.0873 8.039 10.9993 8.05593 10.9108 8.06916V23.0275C11.6263 22.9171 12.2665 22.4903 13.5195 21.6548L14.9966 20.6701C15.9968 20.0034 16.4968 19.6701 17.0578 19.5375C17.145 19.5168 17.233 19.4999 17.3215 19.4867V4.52832C16.6061 4.63876 15.9658 5.06559 14.7127 5.90097L13.2357 6.88565C12.2356 7.5524 11.7355 7.88577 11.1745 8.01839Z" fill="white"/>
<path d="M19.9724 20.0039C20.0658 20.035 20.1562 20.0651 20.2438 20.0943L19.9724 20.0039Z" fill="white"/>
</svg>
