<svg width="28" height="28" viewBox="0 0 28 28" fill="none" xmlns="http://www.w3.org/2000/svg">
<path fill-rule="evenodd" clip-rule="evenodd" d="M10.4303 7.79548C11.5213 7.31759 12.7299 7.05232 14.0022 7.05232C15.3428 7.05232 16.6127 7.34811 17.7496 7.87653C17.7849 7.93021 17.8224 7.98389 17.861 8.03653C17.5385 8.21968 17.2395 8.4439 16.9727 8.70704C16.8151 8.86073 16.6726 9.02493 16.5429 9.19863C15.7542 8.89969 14.8969 8.73653 14.0021 8.73653C13.1909 8.73653 12.4119 8.87126 11.6854 9.11759C11.5054 8.81759 11.2846 8.53759 11.0285 8.28496C10.8431 8.1039 10.6425 7.94075 10.4303 7.79548ZM22.7873 15.8945C22.7262 18.3966 21.5785 20.6357 19.792 22.1746C19.6109 21.6251 19.3141 21.1135 18.9186 20.6767C20.2003 19.4588 21.0147 17.7693 21.0715 15.8947L22.7873 15.8945ZM8.21213 22.1746C6.3743 20.5925 5.2148 18.2704 5.2148 15.6841C5.2148 15.6136 5.21587 15.5441 5.21695 15.4736H6.93261C6.93046 15.543 6.92939 15.6136 6.92939 15.6841C6.92939 17.643 7.75562 19.4136 9.08547 20.6765C8.69004 21.1134 8.39323 21.6251 8.21213 22.1746ZM14.0001 14.2103C15.6558 14.2103 17.0009 15.5314 17.0009 17.1579C17.0009 18.7844 15.656 20.1055 14.0001 20.1055C12.3445 20.1055 10.9994 18.7844 10.9994 17.1579C10.9994 15.5314 12.3442 14.2103 14.0001 14.2103ZM6.28219 2C7.93891 2 9.28294 3.32105 9.28294 4.94759C9.28294 6.57414 7.93914 7.89519 6.28219 7.89519C4.62654 7.89519 3.28144 6.57414 3.28144 4.94759C3.28144 3.32105 4.62631 2 6.28219 2ZM21.7135 2.42105C23.3691 2.42105 24.7142 3.74105 24.7142 5.36865C24.7142 6.99624 23.3693 8.31624 21.7135 8.31624C20.0576 8.31624 18.7127 6.99624 18.7127 5.36865C18.7127 3.74105 20.0576 2.42105 21.7135 2.42105ZM15.7147 20.9474C16.3973 20.9474 17.051 21.2137 17.5332 21.6874C18.0155 22.1611 18.2866 22.8042 18.2866 23.4737V24.3158C18.2866 25.2463 17.5193 26 16.572 26H11.4326C10.4853 26 9.71799 25.2463 9.71799 24.3158V23.4737C9.71799 22.8042 9.9891 22.1611 10.4713 21.6874C10.9536 21.2137 11.6073 20.9474 12.2899 20.9474H15.7147ZM7.99678 8.73707C8.67939 8.73707 9.33308 9.00337 9.81531 9.47706C10.2975 9.95075 10.5687 10.5939 10.5687 11.2634V12.1055C10.5687 13.035 9.80139 13.7897 8.85514 13.7897H3.71459C2.76727 13.7897 2 13.035 2 12.1055V11.2634C2 10.5939 2.27111 9.95075 2.75334 9.47706C3.23558 9.00337 3.89032 8.73707 4.57188 8.73707H7.99678ZM23.4292 9.15812C24.1107 9.15812 24.7644 9.42443 25.2467 9.89812C25.7289 10.3718 26 11.0139 26 11.6844V12.5265C26 13.4571 25.2327 14.2108 24.2854 14.2108H19.146C18.1998 14.2108 17.4314 13.4571 17.4314 12.5265V11.6844C17.4314 11.0139 17.7025 10.3718 18.1848 9.89812C18.667 9.42443 19.3207 9.15812 20.0033 9.15812H23.4292Z" fill="white"/>
</svg>
