<svg width="28" height="28" viewBox="0 0 28 28" fill="none" xmlns="http://www.w3.org/2000/svg">
<path d="M6.28542 15.2771L13.8507 23.0541C14.1113 23.3219 14.2416 23.4559 14.3952 23.4888C14.4644 23.5037 14.5356 23.5037 14.6048 23.4888C14.7584 23.4559 14.8887 23.3219 15.1493 23.0541L22.7146 15.2771C24.8432 13.089 25.1016 9.48826 23.3114 6.96328L22.9749 6.4885C20.8332 3.46791 16.5344 3.97449 15.0296 7.42479C14.817 7.91216 14.183 7.91216 13.9704 7.42479C12.4657 3.97449 8.16684 3.46791 6.02522 6.48852L5.68861 6.96328C3.89838 9.48826 4.15687 13.089 6.28542 15.2771Z" fill="white" stroke="white" stroke-width="0.5"/>
</svg>
